<?xml version="1.0" standalone="no"?>
<!DOCTYPE svg PUBLIC "-//W3C//DTD SVG 20010904//EN"
 "http://www.w3.org/TR/2001/REC-SVG-20010904/DTD/svg10.dtd">
<svg version="1.0" xmlns="http://www.w3.org/2000/svg"
 width="666.000000pt" height="666.000000pt" viewBox="0 0 666.000000 666.000000"
 preserveAspectRatio="xMidYMid meet">
<metadata>
Created by potrace 1.14, written by Peter Selinger 2001-2017
</metadata>
<g transform="translate(0.000000,666.000000) scale(0.100000,-0.100000)"
fill="#000000" stroke="none">
<path d="M2335 5462 c-41 -19 -63 -40 -199 -192 -134 -150 -147 -215 -68 -348
23 -39 42 -75 42 -80 0 -5 -15 -15 -32 -23 -309 -123 -565 -328 -741 -594
-388 -587 -347 -1345 102 -1887 258 -311 623 -508 1035 -559 92 -11 336 -7
421 6 28 5 34 0 79 -65 220 -313 579 -540 987 -622 161 -32 414 -32 577 0 685
136 1187 669 1277 1355 19 149 19 245 0 394 -33 255 -112 466 -253 678 -237
358 -610 603 -1037 681 -108 20 -353 25 -481 11 l-70 -8 -31 48 c-54 83 -186
225 -281 303 -111 91 -285 197 -395 241 -45 18 -84 34 -86 35 -2 2 17 38 43
81 45 75 51 100 47 173 -4 50 -27 86 -148 221 -157 176 -123 164 -463 167
-260 2 -289 1 -325 -16z m682 -252 c57 -63 106 -125 109 -137 6 -22 -43 -123
-83 -171 -18 -21 -19 -22 -82 -7 -161 38 -442 38 -620 0 -41 -8 -75 -14 -77
-13 -22 24 -94 159 -94 179 0 19 28 59 107 148 l107 121 265 -2 265 -3 103
-115z m-154 -445 c170 -26 281 -62 447 -147 131 -67 221 -131 333 -238 76 -71
183 -197 176 -204 -2 -2 -39 -16 -81 -31 -43 -14 -106 -39 -139 -54 l-62 -28
-66 70 c-158 168 -371 284 -610 332 -118 24 -382 16 -494 -14 -328 -90 -608
-325 -747 -626 -285 -615 28 -1340 670 -1555 598 -201 1256 131 1444 728 43
136 59 259 53 404 l-5 126 66 30 c37 16 96 38 130 47 77 22 76 23 91 -94 7
-47 14 -102 16 -121 7 -56 -13 -256 -36 -358 -79 -352 -300 -677 -590 -872
-249 -166 -508 -244 -809 -244 -237 1 -432 46 -634 148 -156 79 -241 140 -372
271 -219 218 -342 445 -401 745 -22 113 -24 142 -20 305 5 184 20 275 65 411
155 463 516 803 995 939 157 44 403 57 580 30z m-48 -440 c144 -23 253 -66
382 -152 90 -59 208 -165 202 -181 -2 -5 -42 -38 -89 -72 -259 -191 -463 -474
-564 -786 -56 -171 -71 -273 -70 -489 0 -110 5 -219 11 -242 14 -54 8 -56
-123 -43 -427 44 -763 329 -876 745 -29 105 -35 308 -14 415 45 219 133 385
283 533 83 81 145 127 238 174 198 101 404 133 620 98z m1698 -265 c285 -57
520 -179 723 -373 213 -203 355 -455 416 -735 32 -151 37 -404 9 -550 -29
-149 -53 -226 -112 -352 -76 -161 -147 -264 -269 -394 -169 -179 -426 -331
-663 -391 -155 -39 -245 -48 -426 -42 -141 4 -184 10 -282 35 -267 69 -479
187 -666 374 -82 80 -170 185 -162 192 2 1 29 11 59 20 30 10 92 33 138 53
l83 35 80 -80 c164 -165 356 -268 591 -318 112 -24 322 -24 438 0 667 141
1064 810 864 1456 -52 167 -139 313 -265 445 -225 234 -500 350 -829 349 -159
0 -244 -15 -385 -66 -354 -129 -626 -440 -717 -822 -18 -74 -22 -123 -23 -261
l-1 -170 -65 -27 c-35 -15 -97 -36 -136 -46 l-71 -20 -6 22 c-3 13 -10 76 -16
140 -63 715 430 1374 1138 1520 160 34 405 36 555 6z m-13 -449 c413 -106 718
-481 737 -908 14 -288 -82 -543 -278 -743 -296 -303 -748 -385 -1132 -207 -44
20 -108 57 -143 82 -78 56 -184 153 -184 169 0 6 29 30 63 53 314 212 558 586
638 982 29 140 36 362 15 479 -24 137 -33 125 92 120 62 -3 143 -15 192 -27z
m-863 -313 c-6 -153 -33 -262 -97 -390 -52 -105 -91 -160 -174 -246 -113 -118
-110 -119 -103 39 8 193 60 351 167 510 41 61 189 219 205 219 4 0 5 -60 2
-132z"/>
</g>
</svg>
